<svg xmlns="http://www.w3.org/2000/svg" width="207.173" height="70" viewBox="0 0 207.173 70"><linearGradient id="a" gradientUnits="userSpaceOnUse" x1="58.356" y1="75.456" x2="11.643" y2="-5.454"><stop offset="0" stop-color="#3c9edf"/><stop offset="1" stop-color="#2c7cd3"/></linearGradient><path fill-rule="evenodd" clip-rule="evenodd" fill="url(#a)" d="M3 0h64a3 3 0 0 1 3 3v64a3 3 0 0 1-3 3H3a3 3 0 0 1-3-3V3a3 3 0 0 1 3-3zm33.595 33.51L55.373 57h-12.51L29.826 39.702l-3.838 4.692V57h-9.975V13h9.975v19.358L41.455 13h12.504L36.595 33.51z"/><path d="M95.673 57l-6.072-7.201-1.608 1.824V57H86V40.991h1.992v8.257l7.081-8.257h2.497l-6.673 7.584L98.169 57h-2.496zm3.191-5.809c0-3.36 2.4-6.072 5.713-6.072 3.504 0 5.568 2.736 5.568 6.216v.456h-9.361c.144 2.184 1.656 4.008 4.152 4.008 1.344 0 2.664-.528 3.6-1.488l.864 1.176c-1.176 1.152-2.736 1.8-4.608 1.8-3.456.001-5.928-2.471-5.928-6.096zm5.688-4.584c-2.472 0-3.696 2.088-3.792 3.84h7.608c-.023-1.704-1.175-3.84-3.816-3.84zm8.136 13.297c.264.12.696.192.984.192.792 0 1.32-.264 1.728-1.224l.768-1.752-4.849-11.713h1.968l3.84 9.504 3.864-9.504h1.944l-5.809 13.945c-.696 1.68-1.872 2.328-3.408 2.353-.384 0-.984-.072-1.296-.168l.266-1.633zm11.136-4.44l.912-1.296c.768.888 2.231 1.656 3.816 1.656 1.775 0 2.76-.84 2.76-1.992 0-2.808-7.177-1.08-7.177-5.376 0-1.824 1.536-3.336 4.297-3.336 1.992 0 3.384.744 4.296 1.68l-.84 1.248c-.696-.84-1.944-1.464-3.456-1.464-1.584 0-2.568.792-2.568 1.824 0 2.52 7.177.864 7.177 5.376 0 1.944-1.561 3.504-4.537 3.504-1.92 0-3.504-.6-4.68-1.824zm12.503-.888v-7.584h-1.92v-1.584h1.92V42.24h1.824v3.168h2.353v1.584h-2.353v7.201c0 .864.384 1.488 1.152 1.488.527 0 .983-.24 1.224-.504l.528 1.368c-.456.432-1.104.744-2.137.744-1.727-.001-2.591-.985-2.591-2.713zm6.025-3.385c0-3.36 2.208-6.072 5.736-6.072s5.737 2.712 5.737 6.072-2.209 6.097-5.737 6.097-5.736-2.736-5.736-6.097zm9.577 0c0-2.352-1.368-4.464-3.841-4.464-2.472 0-3.84 2.112-3.84 4.464 0 2.376 1.368 4.488 3.84 4.488 2.473.001 3.841-2.111 3.841-4.488zM164.6 57v-7.584c0-2.064-1.056-2.688-2.616-2.688-1.416 0-2.736.864-3.432 1.8V57h-1.801V45.407h1.801v1.68c.815-.984 2.4-1.968 4.152-1.968 2.4 0 3.672 1.224 3.672 3.744V57H164.6zm4.726-5.809c0-3.36 2.4-6.072 5.713-6.072 3.504 0 5.568 2.736 5.568 6.216v.456h-9.361c.145 2.184 1.656 4.008 4.152 4.008 1.345 0 2.665-.528 3.601-1.488l.864 1.176c-1.176 1.152-2.736 1.8-4.608 1.8-3.456.001-5.929-2.471-5.929-6.096zm5.689-4.584c-2.472 0-3.696 2.088-3.792 3.84h7.608c-.023-1.704-1.176-3.84-3.816-3.84zm6.959 8.833l1.057-1.512c.672.84 1.608 1.584 3 1.584 1.968 0 3.217-1.368 3.217-3.36V40.991h1.992v11.185c0 3.456-2.232 5.112-5.089 5.112-1.681 0-3.073-.552-4.177-1.848zm12.049-.696l1.199-1.536a6.606 6.606 0 0 0 5.018 2.304c2.855 0 3.768-1.536 3.768-2.784 0-4.128-9.48-1.824-9.48-7.537 0-2.64 2.352-4.464 5.52-4.464 2.424 0 4.32.84 5.666 2.256l-1.201 1.464c-1.199-1.344-2.881-1.92-4.633-1.92-1.896 0-3.287 1.032-3.287 2.544 0 3.601 9.48 1.536 9.48 7.513 0 2.304-1.584 4.705-5.904 4.705-2.763-.001-4.826-1.057-6.146-2.545z" fill="#1A1A1A"/></svg>